<svg xmlns="http://www.w3.org/2000/svg" viewBox="0 0 32 32" fill="none">
  <rect width="32" height="32" rx="7" fill="#2563eb"/>
  <path d="M16 6.5L25 11.5V20.5L16 25.5L7 20.5V11.5L16 6.5Z" stroke="white" stroke-width="1.8" stroke-linejoin="round"/>
  <circle cx="16" cy="16" r="3" fill="white"/>
  <circle cx="16" cy="10.5" r="1.3" fill="white"/>
  <circle cx="16" cy="21.5" r="1.3" fill="white"/>
  <circle cx="10" cy="13.2" r="1.3" fill="white"/>
  <circle cx="22" cy="13.2" r="1.3" fill="white"/>
  <circle cx="10" cy="18.8" r="1.3" fill="white"/>
  <circle cx="22" cy="18.8" r="1.3" fill="white"/>
  <line x1="16" y1="16" x2="16" y2="10.5" stroke="white" stroke-width="0.7" opacity="0.5"/>
  <line x1="16" y1="16" x2="16" y2="21.5" stroke="white" stroke-width="0.7" opacity="0.5"/>
  <line x1="16" y1="16" x2="10" y2="13.2" stroke="white" stroke-width="0.7" opacity="0.5"/>
  <line x1="16" y1="16" x2="22" y2="13.2" stroke="white" stroke-width="0.7" opacity="0.5"/>
  <line x1="16" y1="16" x2="10" y2="18.8" stroke="white" stroke-width="0.7" opacity="0.5"/>
  <line x1="16" y1="16" x2="22" y2="18.8" stroke="white" stroke-width="0.7" opacity="0.5"/>
</svg>
